<svg width="38" height="38" viewBox="0 0 38 38" fill="none" xmlns="http://www.w3.org/2000/svg">
<path fill-rule="evenodd" clip-rule="evenodd" d="M19 38C29.4934 38 38 29.4934 38 19C38 8.50659 29.4934 0 19 0C8.50659 0 0 8.50659 0 19C0 29.4934 8.50659 38 19 38ZM21.7194 19.3129L28.9718 12.5C28.8965 11.0216 28.4791 10.5813 27.0097 10.5L19.6906 17.407L12.4718 10.6257C11.2061 10.7194 10.7169 11.062 10.4718 12.5L17.6748 19.3093L10.4718 26.1067C10.3191 27.7006 10.7919 28.0833 12.4718 28L19.6926 21.2168L27.0009 28.1257C28.6011 28.1757 28.9995 27.7033 28.9718 26.1257L21.7194 19.3129Z" fill="#D54343"/>
</svg>
